<?xml version="1.0" encoding="utf-8"?>
<!-- Uploaded to: SVG Repo, www.svgrepo.com, Generator: SVG Repo Mixer Tools -->
<!DOCTYPE svg PUBLIC "-//W3C//DTD SVG 1.1//EN" "http://www.w3.org/Graphics/SVG/1.1/DTD/svg11.dtd">
<svg fill="#000000" width="800px" height="800px" viewBox="0 0 1000 1000" version="1.1" xmlns="http://www.w3.org/2000/svg" xmlns:xlink="http://www.w3.org/1999/xlink"  enable-background="new 0 0 1000 1000" xml:space="preserve">

<g>
<g transform="translate(0.000000,511.000000) scale(0.100000,-0.100000)">
<path d="M4197.7,4291c-986.1-358.1-1895.6-716.1-2012.5-792.7c-338.9-216.4-608.9-765.9-848.3-1731c-291-1166.1-1237-5304-1237-5405.5c0-23,19.1-61.3,44-88.1c36.4-42.1,122.6-65.1,756.3-201.1c392.5-86.2,737.2-155.1,767.8-155.1c114.9,0,105.3-23,338.9,779.3c82.3,285.3,153.2,517,157,513.2c3.8-3.8-11.5-147.4-34.5-321.7c-59.4-451.9-76.6-430.8,411.7-515.1c214.5-36.4,319.8-42.1,746.8-44c545.7,0,674,17.2,1003.4,126.4c271.9,91.9,576.4,287.2,689.3,440.4l44,59.4l95.7-107.2c248.9-279.6,631.9-453.8,1131.6-511.2c390.6-46,1060.8-3.8,1459.1,91.9c266.2,61.3,277.6,86.2,220.2,513.2c-23,174.2-38.3,325.5-34.5,335.1c3.8,9.6,90-258.5,195.3-599.3c189.6-618.5,226-702.7,316-729.6c17.2-5.7,358,61.3,758.2,147.4l727.6,158.9l5.7,70.8c9.6,107.2-980.4,4350.4-1317.4,5654.4c-231.7,894.2-455.7,1332.7-785.1,1533.8c-88.1,53.6-310.2,141.7-1235,494l-764,291.1l-107.2-70.9c-143.6-97.7-197.2-122.5-361.9-174.2c-333.2-99.6-710.4-34.5-984.2,172.3c-55.5,44.1-107.2,78.5-111.1,76.6C4230.2,4302.4,4213,4296.7,4197.7,4291z M3904.7,2605.9l-180-283.4l-176.2-5.7l-176.2-5.8l11.5,63.2c5.7,34.5,53.6,356.1,107.2,714.2c53.6,358.1,101.5,656.8,109.1,664.4c7.7,7.7,116.8,51.7,243.2,97.6l229.8,86.2l5.7-524.7l3.8-522.7L3904.7,2605.9z M6288.6,3766.3c7.6-15.3,70.8-333.2,139.8-706.6c68.9-373.4,130.2-695.1,136-712.3c9.6-30.6-7.7-34.5-168.5-34.5l-178.1,1.9l-176.2,283.4l-178.1,283.4v528.5v528.5l204.9-72.8C6181.4,3825.7,6281,3779.7,6288.6,3766.3z M4626.6,3833.3c191.5-63.2,231.7-70.8,413.6-68.9c147.4,0,235.5,11.5,335.1,42.1c74.7,23,153.2,46,178.1,51.7l42.1,9.6l1.9-484.5V2897l-293-731.5c-160.8-404-296.8-733.4-302.5-733.4s-145.5,327.4-310.2,727.6l-302.5,727.6v507.4c0,279.6,5.7,507.4,13.4,507.4C4408.3,3902.3,4509.8,3871.6,4626.6,3833.3z M7041.2,3536.5c201-76.6,367.6-141.7,371.5-145.5c3.8-1.9-24.9-114.9-63.2-248.9c-220.2-775.5-291-1392.1-243.2-2121.6c47.9-721.9,178.1-1878.4,386.8-3439c61.3-471.1,113-859.8,113-865.5c0-42.1-601.3-109.1-968.9-109.1c-607,0-1011,124.5-1281,394.4c-166.6,166.6-178.1,203-116.8,360c61.3,151.3,116.8,386.8,147.4,614.6c26.8,204.9,11.5,2062.2-19.2,2336c-17.2,149.4-51.7,317.9-86.2,411.7c-7.7,21.1,158.9,145.5,593.6,450c331.3,229.8,620.4,438.5,641.5,461.5c59.4,63.2,51.7,139.8-28.7,250.8c-38.3,53.6-68.9,101.5-68.9,109.1c0,5.8,70.9,11.5,158.9,11.5c210.6,0,281.5,38.3,281.5,155.1c0,44-51.7,394.5-114.9,777.4c-63.2,384.9-114.9,712.3-114.9,727.6c0,15.3,11.5,24.9,24.9,19.2C6665.9,3680.1,6842,3613.1,7041.2,3536.5z M3135,2893.2c-51.7-409.8-86.2-746.8-80.4-777.4c21.1-76.6,101.5-109.2,281.5-109.2c84.2,0,153.2-5.7,153.2-11.5c0-5.7-24.9-47.9-55.5-91.9c-70.8-101.5-86.2-160.8-61.3-225.9c11.5-30.6,346.6-329.3,844.4-752.5c451.9-386.8,832.9-718.1,842.5-737.2c34.5-63.2,63.2-1369.1,42.1-1905.2c-21.1-547.6-46-693.2-157-917.2c-304.5-618.5-1110.6-869.3-2253.7-702.7c-130.2,19.1-243.2,42.1-250.8,47.9c-11.5,13.4-7.7,45.9,158.9,1313.5c277.6,2123.5,375.3,3218.8,335.1,3766.4c-36.4,480.6-137.9,991.9-270,1365.2c-32.5,90-63.2,180-67,201.1c-7.7,34.5,26.8,51.7,302.5,155.1c172.3,65.1,315.9,114.9,319.8,111.1C3223,3618.9,3184.7,3291.4,3135,2893.2z M2415,2916.1c118.7-425.1,168.5-733.4,193.4-1187.2c26.8-484.4-13.4-1055-153.2-2230.7l-55.5-469.1l-409.8-1384.4c-227.9-762.1-415.5-1388.2-419.3-1392.1c-3.8-3.8-256.6,46-561,113c-398.3,86.2-557.2,126.4-561,147.4c-7.7,42.1,882.7,3917.7,1154.6,5024.4c153.2,620.4,220.2,834.9,340.8,1072.3c132.1,266.2,371.5,589.8,398.3,541.9C2349.9,3138.3,2382.4,3032.9,2415,2916.1z M7885.6,2891.2c199.1-296.8,338.9-645.3,467.2-1150.8C8571.1,865.4,9562.9-3444.8,9555.3-3487c-3.8-21.1-160.8-63.2-541.9-147.4c-294.9-67-541.9-114.9-549.6-107.2c-5.7,7.7-202.9,643.4-436.6,1411.2L7602.2-932.6l-55.5,478.7C7439.4,507.3,7406.9,957.3,7405,1460.9c0,482.5,15.3,649.1,97.6,1062.7c34.5,168.5,114.9,497.9,145.5,591.7l21.1,65.1l55.5-65.1C7755.4,3078.9,7828.1,2979.3,7885.6,2891.2z M4500.2,1834.3c147.4-352.3,312.1-744.9,365.7-869.3c55.5-124.5,95.7-229.8,93.8-231.7c-3.8-1.9-277.6,227.9-612.7,511.3l-605.1,517l229.8,383c155.1,258.5,235.5,375.3,245.1,358.1C4224.5,2487.2,4352.8,2186.6,4500.2,1834.3z M5995.7,2131.1c126.4-201.1,224-369.6,214.5-379.1c-34.5-34.5-1062.7-681.7-1070.4-674c-3.8,3.8,118.7,312.1,273.8,683.6c155.1,371.5,289.1,697,300.6,721.9c9.6,26.8,23,38.3,32.5,28.7C5756.3,2502.5,5867.4,2332.1,5995.7,2131.1z"/>
</g>
</g>
</svg>