<?xml version="1.0" ?>
<!-- Uploaded to: SVG Repo, www.svgrepo.com, Generator: SVG Repo Mixer Tools -->
<svg width="800px" height="800px" viewBox="0 0 64 64" id="svg5" version="1.1" xml:space="preserve" xmlns="http://www.w3.org/2000/svg" xmlns:svg="http://www.w3.org/2000/svg">
<defs id="defs2"/>
<g id="layer1" transform="translate(-384,-192)">
<path d="m 430,196 c -1.85192,0 -3.41888,1.28195 -3.86719,3 H 391 c -1.64501,0 -3,1.35499 -3,3 v 3 4 7 c 0,1.64501 1.35499,3 3,3 h 17.33789 l -17.22461,17.22266 c -0.39167,0.39075 -0.39167,1.02526 0,1.41601 l 0.70703,0.70703 -3.53515,3.53516 c -0.39042,0.39051 -0.39042,1.02355 0,1.41406 0.39051,0.39042 1.02355,0.39042 1.41406,0 l 3.53516,-3.53515 1.41601,1.41406 -3.53711,3.53515 c -0.39043,0.39051 -0.39043,1.02356 0,1.41407 0.39051,0.39042 1.02355,0.39042 1.41406,0 l 3.53711,-3.53516 1.41407,1.41406 -3.53711,3.53516 c -0.39042,0.39051 -0.39042,1.02355 0,1.41406 0.39073,0.39172 1.02528,0.39172 1.41601,0 l 3.53516,-3.53515 1.41406,1.41406 -3.53516,3.53515 c -0.39043,0.39051 -0.39043,1.02356 0,1.41407 0.39051,0.39043 1.02356,0.39043 1.41407,0 l 3.53515,-3.53516 0.70703,0.70703 c 0.39053,0.39037 1.02354,0.39037 1.41407,0 L 426,226.79297 V 245 c 6e-5,0.55226 0.44774,0.99994 1,1 h 1 v 5 c 0,0.55228 0.44772,1 1,1 0.55228,0 1,-0.44772 1,-1 v -5 h 2 v 5 c 0,0.55228 0.44772,1 1,1 0.55228,0 1,-0.44772 1,-1 v -5 h 2 v 5 c 0,0.55228 0.44772,1 1,1 0.55228,0 1,-0.44772 1,-1 v -5 h 2 v 5 c 0,0.55228 0.44772,1 1,1 0.55228,0 1,-0.44772 1,-1 v -5 h 1 c 0.55226,-6e-5 0.99994,-0.44774 1,-1 v -45 c 0,-2.19731 -1.80269,-4 -4,-4 z m 0,2 h 10 c 1.11642,0 2,0.88358 2,2 v 30.11914 c -0.0433,0.0204 -0.0851,0.0439 -0.125,0.0703 l -1.875,1.5 -1.875,-1.5 c -0.36535,-0.29246 -0.88465,-0.29246 -1.25,0 l -1.875,1.5 -1.875,-1.5 c -0.36535,-0.29246 -0.88465,-0.29246 -1.25,0 l -1.875,1.5 -1.875,-1.5 c -0.0399,-0.0264 -0.0817,-0.0499 -0.125,-0.0703 V 200 c 0,-1.11642 0.88358,-2 2,-2 z m -39,3 h 35 v 3 h -36 v -2 c 0,-0.56413 0.43587,-1 1,-1 z m -1,5 h 36 v 2 h -36 z m 0,4 h 36 v 7 h -35 c -0.56413,0 -1,-0.43587 -1,-1 z m 21.16602,9 H 426 v 4.96484 l -13.04102,13.04102 c -0.048,-0.0134 -0.097,-0.0232 -0.14648,-0.0293 l -2.38672,-0.26562 -0.26562,-2.38672 c -0.0519,-0.46437 -0.41845,-0.83091 -0.88282,-0.88281 l -2.38867,-0.26563 -0.26367,-2.38672 c -0.0521,-0.46502 -0.41964,-0.83176 -0.88477,-0.88281 l -2.38671,-0.26563 -0.26563,-2.38671 c -0.009,-0.0471 -0.0214,-0.0934 -0.0371,-0.13868 z m -9.90625,9.9043 0.19531,1.75195 c 0.0519,0.46437 0.41844,0.8309 0.88281,0.88281 l 2.38672,0.26563 0.26562,2.38672 c 0.0511,0.46513 0.4178,0.83268 0.88282,0.88476 l 2.38672,0.26367 0.26562,2.38672 c 0.051,0.46513 0.41779,0.83269 0.88281,0.88477 l 1.75,0.19531 -1.73437,1.73438 c -0.048,-0.0134 -0.097,-0.0232 -0.14649,-0.0293 l -2.38867,-0.26563 -0.26367,-2.38671 c -0.0521,-0.46502 -0.41964,-0.83177 -0.88477,-0.88282 l -2.38671,-0.26562 -0.26563,-2.38672 c -0.0519,-0.46437 -0.41844,-0.8309 -0.88281,-0.88281 l -2.38672,-0.26563 -0.26563,-2.38672 c -0.009,-0.0471 -0.0214,-0.0934 -0.0371,-0.13867 z m 31.24023,3.34765 1.875,1.5 c 0.36535,0.29246 0.88465,0.29246 1.25,0 l 1.875,-1.5 1.875,1.5 c 0.36535,0.29246 0.88465,0.29246 1.25,0 L 442,232.65234 v 2.4668 c -0.0433,0.0204 -0.0851,0.0439 -0.125,0.0703 l -1.875,1.5 -1.875,-1.5 c -0.36535,-0.29246 -0.88465,-0.29246 -1.25,0 l -1.875,1.5 -1.875,-1.5 c -0.36535,-0.29246 -0.88465,-0.29246 -1.25,0 l -1.875,1.5 -1.875,-1.5 c -0.0399,-0.0264 -0.0817,-0.0499 -0.125,-0.0703 v -2.4668 l 1.375,1.09961 c 0.36535,0.29246 0.88465,0.29246 1.25,0 z m -34.77539,0.1875 0.19531,1.75196 c 0.0511,0.46513 0.4178,0.83268 0.88281,0.88476 l 2.38672,0.26367 0.26563,2.38672 c 0.051,0.46513 0.41779,0.83269 0.88281,0.88477 l 2.38672,0.26367 0.26562,2.38867 c 0.0519,0.46437 0.41845,0.83091 0.88282,0.88281 l 1.75,0.19532 -4.48828,4.48828 c -3.29689,-3.30337 -6.60481,-6.59572 -9.90039,-9.90039 z m 34.77539,4.8125 1.875,1.5 c 0.36535,0.29246 0.88465,0.29246 1.25,0 l 1.875,-1.5 1.875,1.5 c 0.36535,0.29246 0.88465,0.29246 1.25,0 L 442,237.65234 V 244 h -14 v -6.34766 l 1.375,1.09961 c 0.36535,0.29246 0.88465,0.29246 1.25,0 z" id="path11104" style="color:#000000;fill:#000000;fill-rule:evenodd;stroke-linecap:round;stroke-linejoin:round;stroke-miterlimit:4.1"/>
</g>
</svg>