<?xml version="1.0" encoding="iso-8859-1"?>
<!-- Uploaded to: SVG Repo, www.svgrepo.com, Generator: SVG Repo Mixer Tools -->
<!DOCTYPE svg PUBLIC "-//W3C//DTD SVG 1.1//EN" "http://www.w3.org/Graphics/SVG/1.1/DTD/svg11.dtd">
<svg fill="#000000" version="1.1" id="Capa_1" xmlns="http://www.w3.org/2000/svg" xmlns:xlink="http://www.w3.org/1999/xlink" 
	 width="800px" height="800px" viewBox="0 0 506.428 506.428"
	 xml:space="preserve">
<g>
	<path d="M386.657,0H119.773c-2.041,0-3.696,1.656-3.696,3.697v33.269v393.066c0,21.654,12.77,40.381,31.17,49.06v23.638
		c0,2.042,1.656,3.697,3.697,3.697h49.286c2.042,0,3.697-1.655,3.697-3.697v-22.854c19.329-8.296,32.903-27.513,32.903-49.844
		l-0.002-305.201c-0.003-0.128-0.01-0.253-0.021-0.38c0-9.046,7.361-16.407,16.407-16.407c9.046,0,16.408,7.361,16.406,16.395
		c-0.01,0.127-0.02,0.252-0.021,0.466v305.128c0,22.331,13.574,41.548,32.902,49.844v22.854c0,2.042,1.656,3.697,3.697,3.697h49.285
		c2.043,0,3.699-1.655,3.699-3.697v-23.638c18.4-8.679,31.168-27.404,31.168-49.06V36.965V3.697C390.353,1.656,388.7,0,386.657,0z
		 M123.47,7.393h259.49v25.876H278.679V16.224c0-2.041-1.654-3.695-3.695-3.695c-2.043,0-3.695,1.654-3.695,3.695V33.27h-36.144
		V16.224c0-2.041-1.655-3.695-3.696-3.695c-2.042,0-3.697,1.654-3.697,3.695V33.27H123.47V7.393z M123.47,40.663h8.375v416.045
		c-5.273-7.576-8.375-16.77-8.375-26.677V40.663z M196.535,499.032h-41.894v-17.1c4.958,1.497,10.211,2.312,15.652,2.312h12.321
		c4.811,0,9.475-0.638,13.92-1.819L196.535,499.032L196.535,499.032z M276.993,430.031l0.002-305.071
		c0.012-0.168,0.02-0.337,0.02-0.51c0-13.123-10.676-23.8-23.799-23.8c-13.123,0-23.8,10.677-23.8,23.8
		c0,0.173,0.009,0.341,0.023,0.464v305.117c0,25.816-21.006,46.821-46.823,46.821h-12.321c-11.907,0-22.784-4.476-31.056-11.82
		V40.663h88.513v40.662c0,2.041,1.655,3.696,3.697,3.696c2.041,0,3.696-1.655,3.696-3.696V40.663h36.144v40.662
		c0,2.041,1.652,3.696,3.695,3.696c2.041,0,3.695-1.655,3.695-3.696V40.663h88.512v424.37c-8.27,7.346-19.146,11.82-31.055,11.82
		h-12.32C297.997,476.854,276.993,455.849,276.993,430.031z M351.79,499.032h-41.895v-16.605c4.445,1.183,9.107,1.819,13.92,1.819
		h12.32c5.441,0,10.693-0.815,15.654-2.312V499.032L351.79,499.032z M374.585,456.708V40.663h8.375v389.369
		C382.96,439.94,379.856,449.132,374.585,456.708z"/>
</g>
</svg>