<?xml version="1.0" encoding="utf-8"?>

<!DOCTYPE svg PUBLIC "-//W3C//DTD SVG 1.1//EN" "http://www.w3.org/Graphics/SVG/1.1/DTD/svg11.dtd">
<!-- Uploaded to: SVG Repo, www.svgrepo.com, Generator: SVG Repo Mixer Tools -->
<svg height="800px" width="800px" version="1.1" id="_x32_" xmlns="http://www.w3.org/2000/svg" xmlns:xlink="http://www.w3.org/1999/xlink" 
	 viewBox="0 0 512 512"  xml:space="preserve">
<style type="text/css">
	.st0{fill:#000000;}
</style>
<g>
	<path class="st0" d="M467.863,139.726c-24.502-42.668-58.188-60.54-83.748-69.99c-12.668-4.725-23.636-7.77-29.604-10.479
		l-0.05-0.02c-1.457-0.642-2.617-1.263-3.412-1.752l-0.744-0.509c0-25.144,0-25.663,0-25.663C350.306,14.002,336.303,0,319.008,0
		h-82.364c-17.291,0-31.294,14.002-31.294,31.294c0,0,0,0.55,0,25.336c-0.569,0.387-1.751,1.09-3.706,1.894
		c-2.474,1.049-5.794,2.22-9.654,3.401l-0.071,0.02c-12.679,4.002-31.386,8.951-50.612,20.255
		c-19.296,11.294-39.032,29.277-53.838,58.096c-10.56,20.51-15.724,41.752-18.545,63.636c-2.821,21.904-3.36,44.522-4.552,68.29
		C62,319.9,57.468,372.528,29.748,435.635l-2.424,5.529l-3.88,8.829l102.425,28.259l4.49-11.293c0.296-0.744,0.56-1.538,0.856-2.292
		V512h293.225V387.794c30.102-41.589,51.731-86.151,59.857-130.256h0.489l0.936-7.465c1.936-9.979,2.831-19.898,2.831-29.572
		C488.495,188.708,479.452,159.869,467.863,139.726z M467.191,247.16l-0.02,0.123l-0.021,0.132
		c-9.878,67.159-56.986,140.429-119.594,199.166l-42.632-49.35c14.114-12.433,36.706-27.678,56.756-54.877
		c21.894-29.685,40.5-73.626,42.842-143.535l-10.428-0.346c-2.342,68.259-20.213,109.695-40.814,137.69
		c-20.652,28.046-44.171,42.546-59.242,56.844l-3.584,3.421l56.298,65.174l3.962-3.635c19.99-18.412,38.513-38.29,54.949-59.043
		v94.308H149.984v-127.74h-0.662c6.028-32.892,10.234-67.424,12.749-101.284l-10.407-0.774
		c-5.04,68.208-16.955,139.237-37.159,192.201l-65.316-18.014c26.874-63.514,31.639-117.689,33.931-164.472
		c2.311-48.238,2.494-88.452,21.028-124.247c20.213-39.002,48.402-53.667,72.454-62.332c12.037-4.308,22.943-6.946,31.467-10.387
		c4.267-1.742,8.035-3.677,11.059-6.6c3.034-2.871,5.062-7.127,4.99-11.71c0-26.069,0-26.558,0-26.558
		c0.01-6.934,5.611-12.535,12.526-12.546h82.364c6.914,0.01,12.514,5.611,12.525,12.526c0,0,0,0.509,0,26.578
		c-0.061,4.501,1.808,8.717,4.71,11.67c5.101,5.173,12.27,7.739,20.856,10.744c25.764,8.849,65.51,18.88,94.532,68.83
		c9.858,17.016,18.167,43.28,18.148,71.386C469.778,229.268,468.983,238.22,467.191,247.16z"/>
</g>
</svg>