<?xml version="1.0" encoding="iso-8859-1"?>
<!-- Uploaded to: SVG Repo, www.svgrepo.com, Generator: SVG Repo Mixer Tools -->
<svg fill="#000000" height="800px" width="800px" version="1.1" id="Layer_1" xmlns="http://www.w3.org/2000/svg" xmlns:xlink="http://www.w3.org/1999/xlink" 
	 viewBox="0 0 512.001 512.001" xml:space="preserve">
<g>
	<g>
		<path d="M511.981,464.945L486.328,97.246c-0.293-4.201-3.786-7.459-7.997-7.459h-0.534v-43.29c0-4.427-3.589-8.017-8.017-8.017
			H42.222c-4.427,0-8.017,3.589-8.017,8.017v43.29H33.67c-4.21,0-7.705,3.258-7.997,7.459L0.019,464.945
			c-0.155,2.218,0.619,4.4,2.135,6.025s3.641,2.549,5.863,2.549H236.76c3.858,0,7.169-2.747,7.88-6.539L256,406.39l11.36,60.59
			c0.711,3.791,4.022,6.539,7.88,6.539h228.743c2.223,0,4.346-0.924,5.863-2.549S512.136,467.163,511.981,464.945z M230.106,457.487
			H16.613l1.268-18.171h215.633L230.106,457.487z M236.521,423.282H18.999l22.148-317.461h113.963l34.711,215.208
			c4.552,28.226,28.157,48.883,56.528,49.832L236.521,423.282z M247.984,354.864c-21.183-0.192-38.954-15.432-42.333-36.388
			l-34.299-212.655h76.632V354.864z M50.238,89.787V54.514h411.524v35.274H50.238z M264.018,105.821h76.632l-34.299,212.655
			c-3.38,20.956-21.15,36.196-42.334,36.388V105.821z M265.651,370.86c28.372-0.949,51.975-21.606,56.528-49.832l34.71-215.208
			h113.963l22.149,317.461H275.481L265.651,370.86z M281.894,457.487l-3.408-18.171H494.12l1.268,18.171H281.894z"/>
	</g>
</g>
</svg>